<svg width="38" height="39" viewBox="0 0 38 39" fill="none" xmlns="http://www.w3.org/2000/svg">
<rect y="0.761719" width="38" height="38" rx="19" fill="black"/>
<path d="M19.102 30.9656C17.644 30.9656 16.2004 30.6784 14.8534 30.1205C13.5064 29.5626 12.2826 28.7448 11.2517 27.714C10.2208 26.683 9.403 25.4591 8.84509 24.1122C8.28719 22.7653 8 21.3216 8 19.8637C8 18.4057 8.28719 16.9621 8.84509 15.6151C9.403 14.2682 10.2208 13.0443 11.2517 12.0134C12.2826 10.9825 13.5064 10.1647 14.8534 9.60681C16.2004 9.04891 17.644 8.76172 19.102 8.76172C21.9809 8.76172 24.5684 9.76411 26.5837 11.6593L26.8949 11.9589L26.1198 12.8283L25.7841 12.509C23.9903 10.8201 21.679 9.92728 19.102 9.92728C16.4667 9.92728 13.9393 10.9741 12.0759 12.8376C10.2124 14.701 9.16556 17.2284 9.16556 19.8637C9.16556 22.499 10.2124 25.0263 12.0759 26.8898C13.9393 28.7532 16.4667 29.8001 19.102 29.8001C21.7827 29.8001 23.9239 28.7103 25.3517 27.6753L23.6103 25.0551C21.8725 26.1763 20.6813 26.5703 19.102 26.5703C17.3245 26.5703 15.6198 25.8642 14.3629 24.6073C13.1061 23.3505 12.4 21.6458 12.4 19.8684C12.4 18.0909 13.1061 16.3862 14.3629 15.1293C15.6198 13.8725 17.3245 13.1664 19.102 13.1664C20.5841 13.1643 22.0285 13.6342 23.2257 14.5079L23.9005 13.692C22.5174 12.6489 20.8344 12.0803 19.102 12.0707C17.0345 12.0707 15.0517 12.892 13.5899 14.3539C12.1279 15.8158 11.3067 17.7986 11.3067 19.866C11.3067 21.9334 12.1279 23.9162 13.5899 25.3781C15.0517 26.84 17.0345 27.6612 19.102 27.6612C20.407 27.6808 21.6939 27.3543 22.8318 26.7148L23.2712 26.4677L23.9122 27.4456L23.404 27.7312C22.0929 28.4691 20.6099 28.8471 19.1054 28.8268C16.7289 28.8268 14.4497 27.8827 12.7692 26.2023C11.0887 24.5218 10.1446 22.2426 10.1446 19.866C10.1446 17.4895 11.0887 15.2103 12.7692 13.5298C14.4497 11.8493 16.7289 10.9052 19.1054 10.9052C21.3144 10.9187 23.4451 11.7253 25.1093 13.178L25.5347 13.5522L23.3656 16.1665L22.9145 15.7586C21.8608 14.833 20.5044 14.3258 19.102 14.3331C17.6336 14.3331 16.2254 14.9164 15.1871 15.9546C14.1489 16.9929 13.5655 18.4012 13.5655 19.8695C13.5655 21.3379 14.1489 22.746 15.1871 23.7843C16.2254 24.8226 17.6336 25.4059 19.102 25.4059C20.574 25.4059 21.6301 25.0084 23.4448 23.7741L23.9332 23.4349L26.9217 27.934L26.4974 28.2662C24.2712 30.032 21.7186 30.9656 19.102 30.9656Z" fill="white"/>
</svg>
