<svg width="450" height="36" viewBox="0 0 450 36" fill="none" xmlns="http://www.w3.org/2000/svg">
<g clip-path="url(#clip0_1942_675)">
<mask id="mask0_1942_675" style="mask-type:luminance" maskUnits="userSpaceOnUse" x="130" y="0" width="190" height="36">
<path d="M320 0H130V35.4776H320V0Z" fill="white"/>
</mask>
<g mask="url(#mask0_1942_675)">
<path d="M174.613 19.1794C177.002 18.996 178.822 16.9348 178.822 14.3372C178.822 11.2505 176.575 9.17578 173.231 9.17578H167.585V26.4767H169.94V11.349H173.056C175.098 11.349 176.471 12.551 176.471 14.3372C176.471 16.1233 175.098 17.3254 173.056 17.3254H170.172L177.722 26.4767H180.71L174.613 19.1794Z" fill="black"/>
<path d="M199.964 9.17578L195.178 16.2523L190.389 9.17578H187.57L194.005 18.8229V26.4767H196.352V18.8229L202.783 9.17578H199.964Z" fill="black"/>
<path d="M217.615 9.17578H212.03V26.4767H214.424V19.2711H217.615C220.776 19.2711 223.068 17.1522 223.068 14.2353C223.068 11.3184 220.776 9.17578 217.615 9.17578ZM214.424 11.349H217.588C219.708 11.349 220.666 12.8465 220.666 14.2353C220.666 15.6242 219.702 17.1216 217.588 17.1216H214.424V11.349Z" fill="black"/>
<path d="M232.016 9.17578V11.349H236.81V26.4767H239.153V11.349H243.947V9.17578H232.016Z" fill="black"/>
<path d="M266.06 9.39947V21.4295L254.388 8.57812V26.5492H256.736V14.5225L268.407 27.3704V9.39947H266.06Z" fill="black"/>
<path d="M288.247 9.17578C286.507 9.17506 284.805 9.6819 283.358 10.632C281.91 11.5821 280.782 12.933 280.115 14.5136C279.449 16.0942 279.274 17.8336 279.613 19.5118C279.952 21.1901 280.79 22.7317 282.02 23.9418C283.251 25.1519 284.819 25.9762 286.526 26.3102C288.233 26.6443 290.002 26.4731 291.611 25.8185C293.219 25.1638 294.593 24.0551 295.561 22.6325C296.527 21.2098 297.043 19.5372 297.043 17.8262C297.041 15.5333 296.113 13.3351 294.465 11.7135C292.815 10.0918 290.579 9.17923 288.247 9.17578ZM288.247 24.251C286.949 24.2761 285.672 23.9204 284.58 23.2292C283.487 22.5382 282.63 21.543 282.116 20.3706C281.6 19.1983 281.453 17.9019 281.691 16.6467C281.929 15.3914 282.541 14.2343 283.451 13.3228C284.36 12.4112 285.525 11.7867 286.797 11.5286C288.07 11.2706 289.391 11.3908 290.593 11.8739C291.795 12.3571 292.824 13.1812 293.548 14.2413C294.272 15.3013 294.659 16.5494 294.658 17.8262C294.674 18.6641 294.521 19.4968 294.206 20.2756C293.891 21.0544 293.422 21.7638 292.825 22.362C292.228 22.9603 291.516 23.4355 290.73 23.7599C289.943 24.0842 289.099 24.2512 288.247 24.251Z" fill="black"/>
<path d="M313.845 17.4951L319.558 9.17578H316.68L312.403 15.366L308.131 9.17578H305.253L310.964 17.4951L304.799 26.4767H307.676L312.403 19.5767L317.133 26.4767H320.012L313.845 17.4951Z" fill="black"/>
<path d="M147.739 35.4776C145.409 35.4776 143.103 35.0187 140.95 34.1272C138.798 33.2358 136.843 31.9292 135.196 30.282C133.548 28.6348 132.242 26.6793 131.35 24.5271C130.459 22.3749 130 20.0682 130 17.7388C130 15.4093 130.459 13.1027 131.35 10.9504C132.242 8.79827 133.548 6.84277 135.196 5.19557C136.843 3.54837 138.798 2.24175 140.95 1.35029C143.103 0.45883 145.409 -4.90903e-08 147.739 0C152.339 0 156.473 1.60162 159.693 4.62978L160.19 5.1084L158.952 6.4977L158.416 5.98742C155.549 3.2889 151.856 1.86234 147.739 1.86234C143.528 1.86234 139.49 3.53503 136.512 6.51244C133.535 9.48984 131.862 13.5281 131.862 17.7388C131.862 21.9494 133.535 25.9877 136.512 28.9651C139.49 31.9425 143.528 33.6152 147.739 33.6152C152.022 33.6152 155.443 31.8739 157.725 30.2202L154.942 26.0336C152.166 27.8252 150.262 28.4546 147.739 28.4546C144.899 28.4546 142.175 27.3264 140.167 25.3183C138.159 23.31 137.03 20.5863 137.03 17.7462C137.03 14.9062 138.159 12.1824 140.167 10.1743C142.175 8.16599 144.899 7.03778 147.739 7.03778C150.107 7.03442 152.415 7.7852 154.328 9.18134L155.406 7.8777C153.196 6.21091 150.507 5.30233 147.739 5.28718C144.435 5.28718 141.267 6.59943 138.932 8.93526C136.596 11.2711 135.283 14.4392 135.283 17.7425C135.283 21.0459 136.596 24.2139 138.932 26.5497C141.267 28.8855 144.435 30.1978 147.739 30.1978C149.824 30.2291 151.88 29.7073 153.698 28.6856L154.4 28.2908L155.425 29.8533L154.613 30.3095C152.518 31.4886 150.148 32.0926 147.744 32.0602C143.947 32.0602 140.305 30.5517 137.62 27.8666C134.935 25.1815 133.427 21.5398 133.427 17.7425C133.427 13.9452 134.935 10.3035 137.62 7.61839C140.305 4.93331 143.947 3.42485 147.744 3.42485C151.274 3.4464 154.678 4.73518 157.337 7.0564L158.017 7.65421L154.551 11.8314L153.83 11.1796C152.147 9.7008 149.98 8.89043 147.739 8.90198C145.393 8.90198 143.143 9.834 141.484 11.4929C139.825 13.1519 138.893 15.402 138.893 17.7481C138.893 20.0943 139.825 22.3442 141.484 24.0032C143.143 25.6622 145.393 26.5942 147.739 26.5942C150.091 26.5942 151.778 25.9591 154.678 23.9869L155.458 23.4449L160.233 30.6336L159.555 31.1644C155.998 33.9859 151.92 35.4776 147.739 35.4776Z" fill="black"/>
</g>
</g>
<defs>
<clipPath id="clip0_1942_675">
<rect width="190" height="35.4776" fill="white" transform="translate(130)"/>
</clipPath>
</defs>
</svg>
