<svg width="38" height="39" viewBox="0 0 38 39" fill="none" xmlns="http://www.w3.org/2000/svg">
<rect y="0.523438" width="38" height="38" rx="19" fill="black"/>
<mask id="mask0_1942_852" style="mask-type:alpha" maskUnits="userSpaceOnUse" x="7" y="6" width="24" height="25">
<rect x="7" y="6.52344" width="24" height="24" fill="#D9D9D9"/>
</mask>
<g mask="url(#mask0_1942_852)">
<path d="M19 18.5234C17.9 18.5234 16.9583 18.1318 16.175 17.3484C15.3917 16.5651 15 15.6234 15 14.5234C15 13.4234 15.3917 12.4818 16.175 11.6984C16.9583 10.9151 17.9 10.5234 19 10.5234C20.1 10.5234 21.0417 10.9151 21.825 11.6984C22.6083 12.4818 23 13.4234 23 14.5234C23 15.6234 22.6083 16.5651 21.825 17.3484C21.0417 18.1318 20.1 18.5234 19 18.5234ZM11 26.5234V23.7234C11 23.1568 11.1458 22.6359 11.4375 22.1609C11.7292 21.6859 12.1167 21.3234 12.6 21.0734C13.6333 20.5568 14.6833 20.1693 15.75 19.9109C16.8167 19.6526 17.9 19.5234 19 19.5234C20.1 19.5234 21.1833 19.6526 22.25 19.9109C23.3167 20.1693 24.3667 20.5568 25.4 21.0734C25.8833 21.3234 26.2708 21.6859 26.5625 22.1609C26.8542 22.6359 27 23.1568 27 23.7234V26.5234H11Z" fill="white"/>
</g>
</svg>
